<?xml version="1.0" standalone="no"?>
<!DOCTYPE svg PUBLIC "-//W3C//DTD SVG 1.1//EN" "https://www.w3.org/Graphics/SVG/1.1/DTD/svg11.dtd">

<svg width="690" height="240" version="1.1" xmlns="http://www.w3.org/2000/svg" >
	<ellipse stroke="black" stroke-width="1" fill="none" cx="51.5" cy="111.5" rx="30" ry="30"/>
	<text x="29.5" y="117.5" font-family="Times New Roman" font-size="20">Open</text>
	<ellipse stroke="black" stroke-width="1" fill="none" cx="257.5" cy="111.5" rx="30" ry="30"/>
	<text x="232.5" y="117.5" font-family="Times New Roman" font-size="20">Doing</text>
	<ellipse stroke="black" stroke-width="1" fill="none" cx="458.5" cy="111.5" rx="30" ry="30"/>
	<text x="420.5" y="117.5" font-family="Times New Roman" font-size="20">Feedback</text>
	<ellipse stroke="black" stroke-width="1" fill="none" cx="654.5" cy="111.5" rx="30" ry="30"/>
	<text x="626.5" y="117.5" font-family="Times New Roman" font-size="20">Closed</text>
	<polygon stroke="black" stroke-width="1" points="81.5,111.5 227.5,111.5"/>
	<polygon fill="black" stroke-width="1" points="227.5,111.5 219.5,106.5 219.5,116.5"/>
	<text x="111.5" y="132.5" font-family="Times New Roman" font-size="20">Bearbeiten</text>
	<path stroke="black" stroke-width="1" fill="none" d="M 629.152,127.538 A 540.393,540.393 0 0 1 76.848,127.538"/>
	<polygon fill="black" stroke-width="1" points="629.152,127.538 619.72,127.329 624.83,135.924"/>
	<text x="310.5" y="224.5" font-family="Times New Roman" font-size="20">Verworfen</text>
	<path stroke="black" stroke-width="1" fill="none" d="M 437.128,132.457 A 129.15,129.15 0 0 1 278.872,132.457"/>
	<polygon fill="black" stroke-width="1" points="437.128,132.457 427.742,133.407 433.869,141.31"/>
	<text x="334.5" y="180.5" font-family="Times New Roman" font-size="20">Fertig</text>
	<polygon stroke="black" stroke-width="1" points="488.5,111.5 624.5,111.5"/>
	<polygon fill="black" stroke-width="1" points="624.5,111.5 616.5,106.5 616.5,116.5"/>
	<text x="511.5" y="132.5" font-family="Times New Roman" font-size="20">Aktzeptiert</text>
	<path stroke="black" stroke-width="1" fill="none" d="M 273.353,86.14 A 110.193,110.193 0 0 1 442.647,86.14"/>
	<polygon fill="black" stroke-width="1" points="273.353,86.14 282.316,83.196 274.635,76.794"/>
	<text x="316.5" y="37.5" font-family="Times New Roman" font-size="20">Abgelehnt</text>
</svg>
